# xmcd
#
# Track frame offsets: 
#        150
#        26160
#        43168
#        62218
#        85023
#        107142
#        128072
#        152661
#        169836
#        182294
#        199512
#        218947
#        241088
#        278963
#        298426
#
# Disc length: 4220 seconds
#
# Revision: 0
# Processed by: cddbd v1.5.2PL0 Copyright (c) Steve Scherf et al.
# Submitted via: ExactAudioCopy v0.95b3
#
DISCID=d9107a0f
DTITLE=Roosevelt Dean and The Spellbinders - Live At The Dinosaur Bar-B-
DTITLE=Que
DYEAR=1996
DGENRE=Blues
TTITLE0=Tell The World
TTITLE1=Make Love At Night
TTITLE2=I'm Gonna Wait
TTITLE3=Keep All My Secrets
TTITLE4=Take A Bow
TTITLE5=Right There
TTITLE6=I'm Gonna Leave Here
TTITLE7=Ease My Worried Mind
TTITLE8=Magic Power
TTITLE9=I Mean What I Say
TTITLE10=Cross-Eyed Cat
TTITLE11=I Started Steppin'
TTITLE12=Rumor
TTITLE13=What Blues Is
TTITLE14=I Don't Wanna Leave You
EXTD=Z-K Records R721\n\n\n\n\nJWB December 2006\n\n\n
EXTT0=
EXTT1=
EXTT2=
EXTT3=
EXTT4=
EXTT5=
EXTT6=
EXTT7=
EXTT8=
EXTT9=
EXTT10=
EXTT11=
EXTT12=
EXTT13=
EXTT14=
PLAYORDER=
